<svg width="20" height="21" viewBox="0 0 20 21" fill="none" xmlns="http://www.w3.org/2000/svg">
<path d="M18.3333 2.625H1.66667C0.75 2.625 0 3.4125 0 4.375V16.625C0 17.5875 0.75 18.375 1.66667 18.375H18.3333C19.25 18.375 19.9917 17.5875 19.9917 16.625L20 4.375C20 3.4125 19.25 2.625 18.3333 2.625ZM6.66667 5.25C8.05 5.25 9.16667 6.4225 9.16667 7.875C9.16667 9.3275 8.05 10.5 6.66667 10.5C5.28333 10.5 4.16667 9.3275 4.16667 7.875C4.16667 6.4225 5.28333 5.25 6.66667 5.25ZM11.6667 15.75H1.66667V14.875C1.66667 13.125 5 12.1625 6.66667 12.1625C8.33333 12.1625 11.6667 13.125 11.6667 14.875V15.75ZM14.875 12.25H16.2417L17.5 14L15.8417 15.7413C14.75 14.8837 13.9417 13.6587 13.5667 12.25C13.4167 11.69 13.3333 11.1038 13.3333 10.5C13.3333 9.89625 13.4167 9.31 13.5667 8.75C13.9417 7.3325 14.75 6.11625 15.8417 5.25875L17.5 7L16.2417 8.75H14.875C14.6917 9.30125 14.5833 9.8875 14.5833 10.5C14.5833 11.1125 14.6917 11.6987 14.875 12.25Z" fill="black" fill-opacity="0.8"/>
</svg>
